# xmcd CD database file
#
# Track frame offsets:
#	150
#	27971
#	58289
#	89868
#	108295
#	121385
#	141635
#	165430
#
# Disc length: 2597 seconds
#
# Revision: 0
# Processed by: cddbd v1.5.1PL0 Copyright (c) Steve Scherf et al.
# Submitted via: CDex 1.51
#
DISCID=740a2308
DTITLE=böhm-halle-sell - try to org
DYEAR=2003
DGENRE=Jazz
TTITLE0=try to org
TTITLE1=anneme sevgi ile
TTITLE2=x-tension
TTITLE3=cat of pray
TTITLE4=x-ray of a cat
TTITLE5=trainstations
TTITLE6=leading north
TTITLE7=ständchen
EXTD=YEAR: 2003
EXTT0=
EXTT1=
EXTT2=
EXTT3=
EXTT4=
EXTT5=
EXTT6=
EXTT7=
PLAYORDER=
